<svg xmlns="http://www.w3.org/2000/svg" version="1.1" xmlns:xlink="http://www.w3.org/1999/xlink" xmlns:svgjs="http://svgjs.dev/svgjs" viewBox="0 0 10.022358780795491 3.5232296350240873"><g transform="matrix(0.7573533796105523,0,0,0.7573533796105523,2.999823057220607,1.329355376099321)"><rect width="11.151157815447123" height="11.151157815447123" x="-2.91980897610799" y="-5.004828907723562" fill="#262626"></rect><g transform="matrix(1,0,0,1,0,0)" clip-path="url(#SvgjsClipPath3635)"><g clip-path="url(#bec2b5dae-7832-47d7-98e4-48be9fc32b04a6f6fa1a-d1c8-4cb8-b9bb-1de6c53827e9)"><path d=" M -1.4372961035851224 0.43094916944912254 L -1.4218342134239101 0.3592454238409514 C -1.3985243359856525 0.3613645036080658 -1.376126155656502 0.3626581278845018 -1.3539497394890265 0.36551642152386543 C -1.2794000204726959 0.37516316255671733 -1.2047517396067322 0.38428013364779057 -1.1304114645208725 0.39566402728042793 C -1.0695248819099477 0.405002762533176 -1.011459632244774 0.4249984977775165 -0.9553163386474482 0.4504520954452971 C -0.9183433248037848 0.46718296942053694 -0.8813210300353046 0.48383992200855186 -0.8443726566540494 0.5006939982958334 C -0.8353788878750176 0.5048212757492248 -0.8263235179399651 0.5091579971330866 -0.817797917946691 0.5141600110019728 C -0.780775623178211 0.5358312976900781 -0.7830671861821834 0.5387881531790748 -0.7929726520703225 0.5804551751115208 C -0.7961759121834022 0.5940320698984976 -0.8044181468589807 0.5978759820341932 -0.8176870358658537 0.593428378569494 C -0.829132530654512 0.589572146202594 -0.840085216195004 0.584274446784808 -0.8511118231227212 0.5793956352279634 C -0.8973250103694993 0.5590179728162943 -0.9434889166914611 0.5385171080925837 -0.9897021039382395 0.5180901647560976 C -1.0612210460783484 0.48641485033022014 -1.1372368726079731 0.47248066883832274 -1.2140288737034595 0.4619099104651594 C -1.286397911796655 0.45194284342099955 -1.3587546296586461 0.4424685856250059 -1.4311852689078624 0.43274792320492894 C -1.4328238596580147 0.43253847927445843 -1.4344008492521463 0.4318239058646174 -1.4372961035851224 0.43094916944912254" fill="#e8a941" transform="matrix(1,0,0,1,0,0)" fill-rule="nonzero"></path></g><g clip-path="url(#bec2b5dae-7832-47d7-98e4-48be9fc32b04a6f6fa1a-d1c8-4cb8-b9bb-1de6c53827e9)"><path d=" M -1.463341072350702 0.557132977442059 L -1.4460804284336835 0.4855031532211127 C -1.42663910359353 0.48706782258404013 -1.407739868926359 0.4879055983059226 -1.388988477033638 0.490197161309895 C -1.3172970516566709 0.4988582838464146 -1.2455440251236833 0.5066693104298479 -1.1741852459892284 0.5173139901902359 C -1.098354222927666 0.5286239624356486 -1.0281165848327891 0.5585744444929448 -0.9579282276627286 0.5879335554524419 C -0.9256615421390516 0.6014242086209893 -0.8937891040139074 0.6157895982050319 -0.8619536265823758 0.6302658698699117 C -0.8521512352766154 0.6348073482792473 -0.8427502845176403 0.6401693109874571 -0.8338511792057024 0.6462944906665151 C -0.8123893364480679 0.6609062848746408 -0.8079663734457768 0.6851278594220058 -0.8213215040710787 0.7077354836816265 C -0.8272475352802766 0.7177518316506031 -0.8358716971231835 0.7182200004363608 -0.8448531456710112 0.7152138640225474 C -0.8591938947926454 0.7104582547777445 -0.8731157560533385 0.7045938247245676 -0.8871608196260731 0.6990004397578822 C -0.9508933756451572 0.6736207634773268 -1.0137265547863379 0.6456661588751034 -1.0785186506889795 0.6234404617828109 C -1.1502347165283546 0.5988369600681172 -1.225745413578609 0.5894982248153691 -1.300640099068656 0.5789274664422057 C -1.3502659903589846 0.5719295751182467 -1.4000397244237632 0.5660897855274782 -1.4497395371013169 0.5596709450701143 C -1.4539776966355458 0.5591288548971318 -1.4581542550137536 0.5581185959383912 -1.463341072350702 0.557132977442059" fill="#e8a941" transform="matrix(1,0,0,1,0,0)" fill-rule="nonzero"></path></g><g clip-path="url(#bec2b5dae-7832-47d7-98e4-48be9fc32b04a6f6fa1a-d1c8-4cb8-b9bb-1de6c53827e9)"><path d=" M -1.4108568874210097 0.3025230793770305 C -1.4045735695068915 0.278190622748828 -1.3985120157544482 0.2544372169872209 -1.3920192539098597 0.2289589788570322 C -1.3731693001675054 0.23028956382708066 -1.3542207845755179 0.23057292914477634 -1.3355433140700217 0.23318481816005676 C -1.2572482447676285 0.24411286323814052 -1.1781400402057614 0.2512955580301618 -1.1011385951798043 0.26822355570466827 C -0.9944700334142468 0.29165663545496734 -0.8947500820478315 0.3361696307955726 -0.7977159410839214 0.38607888740359697 C -0.7942893267706359 0.3879188519724288 -0.7909547724963653 0.38992534085756336 -0.7877242335773535 0.39209116023122337 C -0.7618640682798359 0.4088343544376678 -0.7559133966082299 0.4248876156966792 -0.7643281145206664 0.45508450237805853 C -0.7691822856151027 0.47243138791350625 -0.7765621041063906 0.47682971045338873 -0.7927755283710559 0.46948685265571366 C -0.8120566902055555 0.4607641289631732 -0.83075880117346 0.45079706191901314 -0.8494116312165478 0.4408299948748533 C -0.9189100554391756 0.40361057640710674 -0.9905152391977136 0.3708510816352637 -1.0672702795995874 0.35249393714107546 C -1.1141364391001858 0.34129484697650025 -1.162579588194916 0.33632979380122663 -1.210443686423051 0.32963990825737144 C -1.2733384667202525 0.32084326317760614 -1.3363934100231083 0.31314311867501055 -1.3993867521699432 0.30490088399943205 C -1.403156742918414 0.30440807475126586 -1.406865132510864 0.303373175330117 -1.4108568874210097 0.3025230793770305" fill="#e8a941" transform="matrix(1,0,0,1,0,0)" fill-rule="nonzero"></path></g><g clip-path="url(#bec2b5dae-7832-47d7-98e4-48be9fc32b04a6f6fa1a-d1c8-4cb8-b9bb-1de6c53827e9)"><path d=" M -1.2634576412945218 0.11049995582909988 C -1.1909530806580806 0.11992493270027704 -1.1114136680040683 0.12401524946005582 -1.0358783304914054 0.14892675695485347 C -0.9484416496355308 0.1777314575101635 -0.86422054912394 0.21463054996660202 -0.7826852590148548 0.25741871293862584 C -0.7704276453205738 0.2638094593270358 -0.7588984585243601 0.27150935333926907 -0.7482994937240635 0.2803836239031672 C -0.7319135862225399 0.29412068169579797 -0.7292647365136469 0.32319642733759923 -0.743198918005544 0.3390648851285486 C -0.7467964255171566 0.34319216258193974 -0.756874374642154 0.34499091633774626 -0.7625540012272685 0.34324144350675645 C -0.7777448463019894 0.3385720758803824 -0.7923566405101149 0.3318821903365272 -0.8068205919437907 0.3251676643302638 C -0.8596867040408117 0.3006750446964074 -0.9120107259648501 0.27502432332936055 -0.9652587652291997 0.2513571591861825 C -1.0141947235720958 0.22958731064844395 -1.0670115547443006 0.22107403088637412 -1.119434138517972 0.21297963898524552 C -1.1962261396134584 0.2011275765668502 -1.2734000678762736 0.19185044247012295 -1.3504015129022304 0.181476807796226 C -1.3530010816863067 0.18114416155371393 -1.355588330239179 0.18092239739203908 -1.3581632585608467 0.1803803072190563 C -1.372577929069706 0.1772386482619973 -1.3762616781997479 0.17000667254515955 -1.3671447071086744 0.1585858182189095 C -1.3422085591514685 0.1274525939660146 -1.3114695822971065 0.10697636970471214 -1.2634576412945218 0.11049995582909988" fill="#e8a941" transform="matrix(1,0,0,1,0,0)" fill-rule="nonzero"></path></g><g clip-path="url(#bec2b5dae-7832-47d7-98e4-48be9fc32b04a6f6fa1a-d1c8-4cb8-b9bb-1de6c53827e9)"><path d=" M -1.2935436458950638 -0.016743392047393613 C -1.1205183188639374 -0.012295788582694311 -0.9567824461607424 0.02801600791729464 -0.8039992589980397 0.11026587143622091 C -0.7789645491912005 0.12375652460476849 -0.7535602324482367 0.13697613268682485 -0.7296220232185673 0.1522408991487706 C -0.7072854440454375 0.16645844595836323 -0.7012485307554026 0.19112354882907778 -0.7111909573371542 0.21583793262460904 C -0.7146775827679295 0.22459761701076186 -0.721071782762885 0.22937786671797322 -0.7305460405588786 0.2263224493793432 C -0.737814976969329 0.22394464475694165 -0.7449360706053296 0.22053194071339122 -0.7513795515251016 0.2164662644160208 C -0.8186163727752569 0.17395876670390842 -0.8909274673987 0.14006733895480994 -0.9666139906616548 0.11558821131641572 C -1.0247901224076674 0.0967752182676731 -1.0851099743832013 0.08813873619356194 -1.14550374774596 0.08006898475484159 C -1.1869859662103432 0.07448792001936011 -1.228246420513052 0.06694793852241854 -1.2695684759717816 0.06015949112893004 C -1.3034244713207945 0.05461538708706126 -1.3221142620574948 0.03266073508126033 -1.3320443684080423 0.0015767917531820386 C -1.3356295556884508 -0.009609978180188938 -1.331231233148568 -0.016004178175144435 -1.3194900528110103 -0.016632509966556186 C -1.310853570736899 -0.01712531921472238 -1.302167807737971 -0.016743392047393613 -1.2935436458950638 -0.016743392047393613" fill="#e8a941" transform="matrix(1,0,0,1,0,0)" fill-rule="nonzero"></path></g><g clip-path="url(#bec2b5dae-7832-47d7-98e4-48be9fc32b04a6f6fa1a-d1c8-4cb8-b9bb-1de6c53827e9)"><path d=" M -1.2979419684349465 -0.19440112601128134 C -1.2930508366468976 -0.21444614218043845 -1.289071401967956 -0.2334562589284468 -1.2833301742268208 -0.25185036411624734 C -1.2821843927248344 -0.25562035486471824 -1.274324085216585 -0.25974763231810954 -1.2697039985150274 -0.2595874693124555 C -1.2385954147245408 -0.2583554461920402 -1.2075853927836875 -0.25597764156963865 -1.1764521685307927 -0.2540680057329949 C -1.1432984263604165 -0.25207212827792214 -1.1099845211843866 -0.2513082739432646 -1.0769909420196644 -0.2477600473564685 C -1.0501821189194271 -0.24484015256108427 -1.023040649576678 -0.24082375718853033 -0.9971558438167523 -0.2334562589284468 C -0.9290496057201937 -0.21403957455070144 -0.8612636936349432 -0.19271325433631237 -0.7979500254768004 -0.16045888904383954 C -0.7602870786857043 -0.14123932836536063 -0.7243489642631895 -0.118656344568148 -0.6878071585116714 -0.0972684231977381 C -0.6815361608287578 -0.09358467406769644 -0.6759920567868889 -0.08855801973640198 -0.6703863515889992 -0.08380241049159887 C -0.6482222556527275 -0.06510029952369434 -0.6562427261666313 -0.03757690301361627 -0.6672816533255523 -0.02029161863418949 C -0.6695732163295249 -0.01674339204739339 -0.6792076371311726 -0.014932318060382865 -0.6841234093816297 -0.016496987423310294 C -0.693819431339298 -0.01960168568675691 -0.7026407168814719 -0.025589318051975285 -0.7117330475101369 -0.030505090302432425 C -0.7679009815698707 -0.06094838160789484 -0.8224919260354735 -0.09497686019376561 -0.8806310970878721 -0.12102182895934543 C -0.958839924771836 -0.15601128557914024 -1.0429501432025894 -0.17143621504673995 -1.1281691824417166 -0.17924724163017297 C -1.181959311879049 -0.18418765434303846 -1.235872643628423 -0.18829029133402142 -1.2897490146841846 -0.19281181618594556 C -1.2918557742200947 -0.19298429942280376 -1.2939255730623924 -0.19361263121421557 -1.2979419684349465 -0.19440112601128134" fill="#e8a941" transform="matrix(1,0,0,1,0,0)" fill-rule="nonzero"></path></g><g clip-path="url(#bec2b5dae-7832-47d7-98e4-48be9fc32b04a6f6fa1a-d1c8-4cb8-b9bb-1de6c53827e9)"><path d=" M -1.3205249522321592 -0.07300988795676056 C -1.3170013661077713 -0.09155183591901106 -1.3137488250698748 -0.11067283474785661 -1.3093874632236047 -0.1295351087214151 C -1.308759131432193 -0.13229484051114537 -1.3026729372173411 -0.1357321850171041 -1.299284873636199 -0.13557202201145013 C -1.261708168463532 -0.13384718964286868 -1.2241807442156816 -0.13169114918214186 -1.1866163592742187 -0.1292394231725154 C -1.15001295236668 -0.12680001739409308 -1.113335624071916 -0.12481646017022441 -1.0769170206324394 -0.12077542433526223 C -1.0568518048131956 -0.11845759111560594 -1.0370719418355552 -0.11411939495752987 -1.0178784727021382 -0.10782686133969732 C -0.9115671976415004 -0.07334253419927272 -0.8098760092824205 -0.028176566604847353 -0.7122012162958946 0.026118692311855374 C -0.6971582139956238 0.03449644953067954 -0.6877825180492634 0.046348511949074744 -0.685355432502045 0.06347363332284772 C -0.6851336683403704 0.06475493736807958 -0.684862623253879 0.06603624141331144 -0.6848133423290623 0.0673175454585434 C -0.6845915781673875 0.080155226373271 -0.6808215874189167 0.09643025179395726 -0.6938933527265232 0.10257804716482966 C -0.7014702949170775 0.106150914214034 -0.7152319931721163 0.10036040554808201 -0.7246200093496811 0.09566639745929983 C -0.7497163203125408 0.08307512116865523 -0.7742335804088059 0.06928878245120795 -0.7984551549561708 0.055083555872819434 C -0.8912018554610355 0.0006404541816666942 -0.9922400715662951 -0.029075943482750555 -1.0978614136794997 -0.04425446832626723 C -1.1713639130434772 -0.054825226699430574 -1.2451620979563545 -0.0633385064615003 -1.3205249522321592 -0.07300988795676056" fill="#e8a941" transform="matrix(1,0,0,1,0,0)" fill-rule="nonzero"></path></g><g clip-path="url(#bec2b5dae-7832-47d7-98e4-48be9fc32b04a6f6fa1a-d1c8-4cb8-b9bb-1de6c53827e9)"><path d=" M -1.271280988109159 -0.31969787735751837 C -1.2657861649921067 -0.3378578981524401 -1.2606363083487708 -0.35651072819552787 -1.254155866735386 -0.3747200299152662 C -1.2530100852334 -0.3781080934964083 -1.2465419638512196 -0.3816316796207961 -1.2425255684786656 -0.3816316796207961 C -1.2178974263015636 -0.3816563200832044 -1.1931584020436241 -0.38203824725053315 -1.1687150633345844 -0.37969740332174406 C -1.1145676471923314 -0.37447362529118317 -1.0598904611082998 -0.37136892702773655 -1.006728663462379 -0.3608228091169815 C -0.879990445065256 -0.33570185769171323 -0.7627388046953307 -0.28602668547656784 -0.6555281527567904 -0.2133866022968811 C -0.6344482371664844 -0.1990828138688594 -0.6272409019120548 -0.16918161273637977 -0.6401771446764157 -0.14667255032639198 C -0.6421730221314883 -0.14327216651404567 -0.6505507793503125 -0.1405863561115403 -0.6545918151852745 -0.14184301969436391 C -0.6634993423458775 -0.1446889931025233 -0.671519812859781 -0.15028237806920886 -0.6798852498474011 -0.15479158268992887 C -0.7259259538573213 -0.179419724867031 -0.7717448937055666 -0.20460227744831994 -0.8180566428019782 -0.2286267282964185 C -0.8958835433186135 -0.2689385247964075 -0.9797473571252838 -0.28870017564786915 -1.0660875374039889 -0.2986179617672124 C -1.1338734494892393 -0.3064043478882371 -1.2018318448113479 -0.31262606464633447 -1.271280988109159 -0.31969787735751837" fill="#e8a941" transform="matrix(1,0,0,1,0,0)" fill-rule="nonzero"></path></g><g clip-path="url(#bec2b5dae-7832-47d7-98e4-48be9fc32b04a6f6fa1a-d1c8-4cb8-b9bb-1de6c53827e9)"><path d=" M -0.5222109308966494 -0.028694016315422233 C -0.5190446314771819 -0.026784380478778513 -0.5151391181854656 -0.021868608228321373 -0.5155456858152025 -0.018862471814507953 C -0.5156565678960399 -0.01828342094791291 -0.5157674499768772 -0.017716690312521877 -0.5158167309016939 -0.01713763944592661 C -0.5154717644279776 -0.016841953897026918 -0.5151144777230572 -0.01657090881053558 -0.514781831480545 -0.016188981643206812 C -0.5092130869762679 -0.009881023266680389 -0.5032624153046619 -0.004090514600728401 -0.4970283783153604 0.0013180668978948207 C -0.4967326927664608 0.0002831674767459491 -0.496437007217561 -0.000764052175607044 -0.49605508005023236 -0.0018235920591642696 L -0.4824781852632556 0.010903206774725893 C -0.4723263147510335 -0.008538118065427702 -0.47881907659562195 -0.02716630764610717 -0.4810243979811655 -0.046410508786994376 C -0.5012665378495891 -0.0694123804451483 -0.5180590129808498 -0.09548198967313626 -0.5431060430188932 -0.11383913416732439 C -0.5438975921997677 -0.11442176912968582 -0.5446700649003025 -0.11502988593648977 -0.5454222464852738 -0.11566252838553914 C -0.547282601397101 -0.11356808908083305 -0.5486501470607621 -0.11061123359183633 -0.5494632823202361 -0.10679196191854878 C -0.5562024487889079 -0.07527681049832513 -0.5530115089070322 -0.047285245202489334 -0.5222109308966494 -0.028694016315422233" fill="#e8a941" transform="matrix(1,0,0,1,0,0)" fill-rule="nonzero"></path></g><g clip-path="url(#bec2b5dae-7832-47d7-98e4-48be9fc32b04a6f6fa1a-d1c8-4cb8-b9bb-1de6c53827e9)"><path d=" M -0.580818270734806 0.20194071182632445 C -0.5763337065764942 0.20524253378903745 -0.5726745979088608 0.20972709794734912 -0.5690770903972482 0.21403917886880286 C -0.5677341851959954 0.2156161684629344 -0.5660709539834348 0.21758740545559885 -0.5650360545622857 0.21949704129224268 C -0.564654127394957 0.21982968753475485 -0.5642229193028117 0.22007609215883772 -0.5638286719042789 0.22048265978857484 C -0.5553999238697733 0.22866502737867211 -0.5467900558158212 0.23665873121120573 -0.5380054673003718 0.2444578297118588 C -0.5334100210612247 0.24418678462536536 -0.5303546037225948 0.24273299734327536 -0.5283833667299305 0.2406015973449569 C -0.5280014395626014 0.2356611846320915 -0.5273484673087814 0.23067149099440942 -0.5264244499684698 0.22558323550709425 C -0.5253895505473212 0.21944776036742597 -0.5239973644212517 0.2132137233781245 -0.5230856673121445 0.20704128754484374 C -0.5230363863873277 0.19942738466067722 -0.5231965493929818 0.19175188062048987 -0.5233074314738193 0.18410101704271065 C -0.5249964646763154 0.17756955223295745 -0.5286835370520011 0.17172881608642754 -0.5338535493845742 0.16739478352987913 C -0.538818602559848 0.1630827026084255 -0.53915124880236 0.15769876157221052 -0.5370198488040416 0.15327579856991957 C -0.5408391204773291 0.1513908031956842 -0.5446583921506165 0.14950580782144873 -0.5481326973501877 0.1474852899039676 C -0.5481819782750044 0.1478425766088881 -0.5482682198934334 0.14817522285140028 -0.5483544615118625 0.14852018932511646 L -0.5507569065966724 0.14590830030983604 C -0.5602311643926661 0.14005619048786322 -0.5684733990682445 0.1332554228631707 -0.5744240707398505 0.12476678356350934 C -0.579152315105401 0.12242505741018028 -0.5840896916812912 0.12053177767055334 -0.5891713874912217 0.11911179744080302 C -0.591438310032786 0.11845882518698281 -0.5973643412419836 0.12266002402759901 -0.5979680325709873 0.12541975581732934 C -0.6042513504851053 0.15347292226918607 -0.6087482348746212 0.18135360548418455 -0.580818270734806 0.20194071182632445" fill="#e8a941" transform="matrix(1,0,0,1,0,0)" fill-rule="nonzero"></path></g><g clip-path="url(#bec2b5dae-7832-47d7-98e4-48be9fc32b04a6f6fa1a-d1c8-4cb8-b9bb-1de6c53827e9)"><path d=" M -0.5546254591947763 0.33608338917714353 C -0.5498944904123813 0.32090486433362686 -0.5476398881020215 0.3050610470050861 -0.5456440106469487 0.28925419037015765 C -0.5483347972936574 0.28720076191885335 -0.5510002748042548 0.2851143789059357 -0.553639840698448 0.2829955129184448 C -0.5627187660357618 0.2758120420912271 -0.5711044460641097 0.2677934675830578 -0.5786868707364872 0.2590449834575743 C -0.5862761331582456 0.25228117652649407 -0.5928304961588549 0.24613338115562167 -0.6002226348813471 0.24132849098600195 C -0.6124319840046626 0.2333573013969148 -0.6204031735937496 0.23693016844611925 -0.6241731643422206 0.25058098462032097 C -0.6263045643405389 0.25807168519244605 -0.627758351622629 0.2657348690014293 -0.6293599816791691 0.2733364516543918 C -0.6327480452603111 0.28900778574607455 -0.6288178915061862 0.3021165117472935 -0.6164483793772166 0.3129213545133357 C -0.6071362977835066 0.3211030750273882 -0.5979887510250461 0.32947018447821197 -0.5890112244855661 0.33801766547619705 C -0.5873110325793944 0.33823942963787035 -0.5856231609044253 0.3387075984236282 -0.5838736880734359 0.33954537414551067 C -0.5744240707398502 0.3441161799222514 -0.566120234908251 0.3500668515938574 -0.5582352869375931 0.35653497297603776 C -0.5566952580370739 0.35363971864306176 -0.5547609817380219 0.3507691047724941 -0.5523092557283955 0.3479600920579472 C -0.5549211447436759 0.34508947818737945 -0.5561778083264997 0.341023801890009 -0.5546254591947763 0.33608338917714353" fill="#e8a941" transform="matrix(1,0,0,1,0,0)" fill-rule="nonzero"></path></g><g clip-path="url(#bec2b5dae-7832-47d7-98e4-48be9fc32b04a6f6fa1a-d1c8-4cb8-b9bb-1de6c53827e9)"><path d=" M -0.5779969377890548 0.47134720756754067 C -0.5721817886606946 0.4480250098980789 -0.5743131886590132 0.4268342122269355 -0.58163140599428 0.40370913825674015 C -0.5923376869106891 0.39100697988525823 -0.6018858660939079 0.3792904400101087 -0.612271820999009 0.368534878168883 C -0.6177050429600404 0.3628552515837684 -0.6252696649193905 0.3583460469630484 -0.6327726857227196 0.35578343887258446 C -0.6406699539245819 0.35307298800767084 -0.6478772891790112 0.35468693829541487 -0.6490230706809976 0.36613243308407306 C -0.65000868917733 0.375939337122579 -0.653963483393863 0.38541359491857263 -0.6551955065142783 0.39520817872587455 C -0.6561195238545898 0.4026742388355913 -0.6577581146047422 0.41255506426132205 -0.6540250845498838 0.41769260067345404 C -0.637479014042706 0.440460387938729 -0.6169658290877911 0.45958138676757443 -0.5917586360440941 0.47293651739287657 C -0.5858326048348963 0.4760658561187314 -0.5810277146652765 0.47503095669758255 -0.5779969377890548 0.47134720756754067" fill="#e8a941" transform="matrix(1,0,0,1,0,0)" fill-rule="nonzero"></path></g><g clip-path="url(#bec2b5dae-7832-47d7-98e4-48be9fc32b04a6f6fa1a-d1c8-4cb8-b9bb-1de6c53827e9)"><path d=" M -0.5246749771374799 0.027979047223682607 C -0.5349130892681313 0.01937952584318381 -0.543106043018893 0.011408336254096652 -0.5524694187340495 0.005174299264795179 C -0.559849237225337 0.00032012817035886876 -0.5683132360625902 -0.0004437261642986634 -0.5725760360592271 0.010447358220172731 C -0.584699143564114 0.04111241368730989 -0.5801036973249647 0.061379194018141625 -0.5562394094825203 0.08366649226645473 C -0.5518164464802293 0.0878060899510501 -0.5472333204722843 0.09182248532360415 -0.5433524476429761 0.09644257202516149 C -0.5419602615169068 0.09810580323772211 -0.5405680753908375 0.10042200670410295 -0.539964384061834 0.10261500785844213 C -0.5309582950515981 0.10782646565779896 -0.5220014869661789 0.11312416507558476 -0.5136976511345794 0.11916107836561984 C -0.5116155320610778 0.11637670611348128 -0.5089420418897763 0.1136416147861593 -0.505455416459001 0.11112828762051197 C -0.5036813031656031 0.09314075006244849 -0.5023137575019421 0.07525177435401809 -0.5023137575019421 0.057276557027158614 C -0.5096566152996174 0.04744501252624456 -0.5173567598022131 0.03785987264941337 -0.5246749771374799 0.027979047223682607" fill="#e8a941" transform="matrix(1,0,0,1,0,0)" fill-rule="nonzero"></path></g><g clip-path="url(#bec2b5dae-7832-47d7-98e4-48be9fc32b04a6f6fa1a-d1c8-4cb8-b9bb-1de6c53827e9)"><path d=" M -1.0067533039247876 1.0312031539466668 C -1.023853784836152 1.0473919377489238 -1.0416565189261533 1.0591331180864818 -1.0642025420297534 1.060525304212551 C -1.0708677871112005 1.0609441920734923 -1.078962179012329 1.057876454503658 -1.0845309235166063 1.053835418668696 C -1.1463168830054342 1.008952816391966 -1.2007969453901992 0.9571955251033188 -1.2374126725289423 0.8888552026138816 C -1.2534536135567496 0.8589170407877895 -1.2631989164392348 0.8274634905235865 -1.260660948811179 0.7932502084696533 C -1.258800593899352 0.7678828524203021 -1.2574330482356912 0.742293732209276 -1.2528006413029296 0.7173575842520701 C -1.248180554601372 0.6925076779132935 -1.229527724558284 0.682023161158559 -1.2045176552138535 0.6862243599991753 C -1.200686063309362 0.6868896524841994 -1.196755909555237 0.6871237368770784 -1.1929366378819495 0.6878136698245112 C -1.165955331544854 0.6925076779132935 -1.1562839500495938 0.7055301622960832 -1.1587972772152413 0.7329549969565279 C -1.1618034136290545 0.7647658339256513 -1.1669409500411865 0.7965766708947748 -1.1594625697002654 0.8284121483263065 C -1.1578732598749297 0.8351143541013657 -1.1561237870439398 0.8419397621884666 -1.1531176506301266 0.8480998777905431 C -1.1213930552794324 0.9137790303398832 -1.0822270402814294 0.9738278372289257 -1.0223260761668371 1.0178233828589565 C -1.0171885397547054 1.0215317724514066 -1.0126793351339853 1.0260409770721266 -1.0067533039247876 1.0312031539466668" fill="#e8a941" transform="matrix(1,0,0,1,0,0)" fill-rule="nonzero"></path></g><g clip-path="url(#bec2b5dae-7832-47d7-98e4-48be9fc32b04a6f6fa1a-d1c8-4cb8-b9bb-1de6c53827e9)"><path d=" M -1.1375079176944645 1.0756052672064347 C -1.1476721084378907 1.0767264082460126 -1.1583167881982792 1.080225353907992 -1.1679265685375184 1.0784142799209815 C -1.181257058700412 1.0759379134489466 -1.1950187569554513 1.0714040683658184 -1.206599774287355 1.0644061770418594 C -1.2860652655541427 1.0162340730336208 -1.344339959149787 0.9484358407171662 -1.3850213625859005 0.8655576454068281 C -1.3922286978403302 0.8508349691178652 -1.3969843070851333 0.8331923980335181 -1.396873425004296 0.816954333306444 C -1.3966516608426212 0.7777390373836248 -1.3944216989946694 0.7383882189175595 -1.3899987359923784 0.6994439680812317 C -1.3872636446650564 0.6753086351522957 -1.3742041995886543 0.6650089218656239 -1.3542700655003346 0.6630992860289799 C -1.3321552504888796 0.6609678860306614 -1.315609179981702 0.676047849024545 -1.3154982979008647 0.6999367773293976 C -1.3154513889608292 0.7206927474832889 -1.3161993643982803 0.7414429012398964 -1.3177405799800141 0.7621416246790853 C -1.3235187684147682 0.8433565887769443 -1.2932726008085722 0.9112410627118279 -1.2395317522960565 0.969429514689043 C -1.2117249904682827 0.9995524799831974 -1.1807888899146546 1.0268048314067841 -1.1510478517878289 1.055129042945132 C -1.146082798612555 1.0598230510339144 -1.1399103627792744 1.063235755077465 -1.1342800171189764 1.067252150450019 C -1.1353720543166297 1.0700302859497324 -1.1364480391162282 1.07281470462961 -1.1375079176944674 1.0756052672064425" fill="#e8a941" transform="matrix(1,0,0,1,0,0)" fill-rule="nonzero"></path></g><g clip-path="url(#bec2b5dae-7832-47d7-98e4-48be9fc32b04a6f6fa1a-d1c8-4cb8-b9bb-1de6c53827e9)"><path d=" M -1.5146548353159996 0.7706549044412365 C -1.511944384451086 0.7396079218067706 -1.510231872313709 0.7137477565092532 -1.507361258443141 0.6879984732925732 C -1.5054762630689056 0.6712059981613125 -1.4972586688557357 0.6577892663799898 -1.4814764526832154 0.6500644814149856 C -1.459965329000764 0.6395553241978431 -1.438959334797683 0.6521342802572834 -1.4395383856642783 0.6761217704117697 C -1.4402652793053232 0.7054932016024706 -1.4438997475105484 0.7348769530243757 -1.4433576573375657 0.7642360639838728 C -1.4427539660085622 0.7960838616466086 -1.4406841671662645 0.8281657437022232 -1.4355959116789492 0.8595700130416095 C -1.4328731405828314 0.8763871286352785 -1.4237192087981456 0.8926375135935565 -1.4152798504233006 0.9079515609803188 C -1.3886804712535343 0.9562961482254158 -1.3534569302408603 0.997359478828858 -1.3097940308533418 1.0313263562587083 C -1.3003444135197562 1.0387061747499957 -1.2923732239306691 1.0480941909275605 -1.284315792723153 1.0570879597065923 C -1.2820735106439973 1.0595643261786272 -1.2820242297191804 1.0639626487185099 -1.280927729142011 1.0674862348428977 C -1.2848086019713192 1.0686566568072922 -1.2889605198871188 1.071305506516185 -1.2925580273987316 1.0707141354183858 C -1.2997160817283446 1.0695683539163996 -1.307169821606857 1.0677079990045724 -1.3134777799833834 1.0642706544986136 C -1.405423665459978 1.0140164314168731 -1.4730124538459621 0.9420046800285979 -1.5056733867681722 0.8412744697034422 C -1.513373531270768 0.8175949853290598 -1.5122770306935982 0.7910325668529057 -1.5146548353159996 0.7706549044412365" fill="#e8a941" transform="matrix(1,0,0,1,0,0)" fill-rule="nonzero"></path></g><g clip-path="url(#bec2b5dae-7832-47d7-98e4-48be9fc32b04a6f6fa1a-d1c8-4cb8-b9bb-1de6c53827e9)"><path d=" M -1.4077152284639507 1.0520613053752979 C -1.412717242332837 1.0502625516194914 -1.41812582383146 1.0491167701175053 -1.422708949839405 1.046517201333429 C -1.498650854981805 1.0036674372053844 -1.5587489427956638 0.9450970580608404 -1.5994426664629815 0.8674672812434718 C -1.6165431473743461 0.8349418708645073 -1.6177874907259655 0.7993364026845051 -1.6180092548876404 0.7639157379725647 C -1.6181201369684777 0.7359241726767289 -1.6178490918819863 0.7076615622944016 -1.6140174999774946 0.6800272837034862 C -1.6121694652968717 0.6669431981646756 -1.6032372976738607 0.6537851912386401 -1.594637776293362 0.6429926687038019 C -1.5825885901757 0.6280359080219602 -1.558046689617027 0.6340728213119953 -1.554104215631698 0.6529104548231452 C -1.5514307254603967 0.6661300629052016 -1.552096017945421 0.6803476097147942 -1.5530200352857326 0.6939737854265875 C -1.556679143953366 0.745262907929477 -1.5618043601342937 0.7963795471955082 -1.547414330087843 0.8471512199878233 C -1.5351557000397107 0.8904321922080132 -1.514026503524588 0.928464745935234 -1.4838172966120045 0.9614829655623642 C -1.4617024816005497 0.9857291805721373 -1.438873093179254 1.0093840244841115 -1.4164872330813076 1.0334331157946184 C -1.4122737140094874 1.0380285620337675 -1.4088610099659369 1.0433509019139617 -1.4050663787550577 1.0483529157828477 C -1.4059411151705525 1.049572618672059 -1.4068158515860476 1.0508292822548826 -1.4077152284639507 1.0520613053752979" fill="#e8a941" transform="matrix(1,0,0,1,0,0)" fill-rule="nonzero"></path></g><g clip-path="url(#bec2b5dae-7832-47d7-98e4-48be9fc32b04a6f6fa1a-d1c8-4cb8-b9bb-1de6c53827e9)"><path d=" M -1.5213200803974467 1.0053676291115574 C -1.5778699416245094 0.9674089967715618 -1.6299475589244647 0.9250520418916834 -1.6700622317251872 0.8696726026290149 C -1.6959223970227046 0.8339316119057669 -1.7115198097271624 0.7954062489303801 -1.7078237403659164 0.7503142027231797 C -1.70537201435629 0.7202281981226377 -1.7043617553975494 0.6900189912100543 -1.701823787769494 0.6599576270719207 C -1.70086280973557 0.6482903681215877 -1.6974254652296112 0.6370419970321959 -1.6854625207303786 0.6308202802740985 C -1.6726618005092635 0.6241057542678352 -1.661105423639768 0.6274814976177732 -1.65838265254365 0.6415265611905077 C -1.655807724221982 0.6548200906597887 -1.6562512525453315 0.6688528340013193 -1.656522297631823 0.6825652513315417 C -1.6571136687296222 0.7158298755827552 -1.659577714970453 0.7490328986779478 -1.6592450687279408 0.7822605622355485 C -1.6586536976301414 0.8315045263585488 -1.6369084895548112 0.8733317112966485 -1.6068224849542692 0.9104156072211493 C -1.5820834606963299 0.9408958592202241 -1.5544491821054143 0.9689983065968975 -1.5280592468661185 0.9981356533947194 C -1.525853925480575 1.0005873794043463 -1.5235623624766026 1.0029651840267477 -1.5213200803974467 1.0053676291115574" fill="#e8a941" transform="matrix(1,0,0,1,0,0)" fill-rule="nonzero"></path></g><g clip-path="url(#bec2b5dae-7832-47d7-98e4-48be9fc32b04a6f6fa1a-d1c8-4cb8-b9bb-1de6c53827e9)"><path d=" M -0.9718377686922176 -0.6058598875363829 C -1.009599277332947 -0.5924554759862642 -1.0162645224143936 -0.5575769014473068 -1.029890698126187 -0.527182891066661 C -1.0381452530329698 -0.5088134263412687 -1.0467447744134686 -0.4901852367605892 -1.0579931455028604 -0.4735775650973908 C -1.0691922356674355 -0.4570561350526215 -1.0854672610881217 -0.45345862754100874 -1.1012248367982336 -0.4593846587502064 C -1.1139146749385114 -0.4641402679950095 -1.1210727292681244 -0.47317099746765373 -1.1210973697305326 -0.4867725327170388 C -1.121134330424145 -0.49444803675722615 -1.12120825181137 -0.5028627546696628 -1.1183622784032106 -0.5097128032191719 C -1.1088387396824002 -0.5327516355709382 -1.1001776171458806 -0.556628243644587 -1.0871058518382741 -0.5776835187724847 C -1.0684530217951864 -0.60772024244821 -1.0401904114128593 -0.6213710586224116 -1.0038703698230158 -0.6137201950446325 C -0.9939033027788559 -0.6116503962023347 -0.9837391120354296 -0.6103690921571029 -0.9736611629104323 -0.6087305014069505 C -0.9730451513502246 -0.6077695233730266 -0.9724168195588129 -0.6068208655703068 -0.9718377686922176 -0.6058598875363829" fill="#e8a941" transform="matrix(1,0,0,1,0,0)" fill-rule="nonzero"></path></g><g clip-path="url(#bec2b5dae-7832-47d7-98e4-48be9fc32b04a6f6fa1a-d1c8-4cb8-b9bb-1de6c53827e9)"><path d=" M -0.9451521479040219 -0.43821850154147146 C -0.9504005663969911 -0.4387975524080666 -0.95514385541059 -0.4389330749513123 -0.9597393016497392 -0.4399063732164404 C -0.9875830241711252 -0.44578312350082144 -0.9980182600010429 -0.4605304402521927 -0.9885193617426408 -0.48493681826762003 C -0.9879156704136374 -0.48650148763054746 -0.9872380576974089 -0.48810311768708736 -0.9864988438251597 -0.4897170679748315 C -0.9757925629087506 -0.5125218159337188 -0.9612054091630334 -0.5335524505992082 -0.9477763571505065 -0.5549896528944347 C -0.9426881016631913 -0.5630963650267674 -0.9358380531136821 -0.564192865603937 -0.9272385317331832 -0.5578849072274107 C -0.9123064115137497 -0.5468952609933061 -0.8967582797341085 -0.5366941095562673 -0.8810869456424256 -0.526690081818495 C -0.8738796103879961 -0.5220576748857334 -0.8726722277299891 -0.5176347118834425 -0.8766639826401347 -0.5097374436815802 C -0.8857809537312079 -0.4917375858923126 -0.8921751537261634 -0.47211145758409667 -0.9030169571858182 -0.4553436229152443 C -0.9079820103610919 -0.4476927593374652 -0.9206841687325737 -0.44471126338606015 -0.9302939490718132 -0.44059630616387296 C -0.9348893953109623 -0.43862506917120847 -0.9404334993528312 -0.43889611425769987 -0.9451521479040219 -0.43821850154147146" fill="#e8a941" transform="matrix(1,0,0,1,0,0)" fill-rule="nonzero"></path></g><g clip-path="url(#bec2b5dae-7832-47d7-98e4-48be9fc32b04a6f6fa1a-d1c8-4cb8-b9bb-1de6c53827e9)"><path d=" M -1.114838692278823 -0.6223813175811524 C -1.1407850991947694 -0.6056750840683208 -1.1476844286690948 -0.5806034135678693 -1.1554708147901198 -0.5558274286163173 C -1.161125800912826 -0.5377536494398247 -1.1669655905035947 -0.5196552298009237 -1.1741236448332075 -0.5021235407974138 C -1.1824274806648067 -0.48183212000417364 -1.2023369742907182 -0.4706330298395985 -1.222751597396 -0.4728753119187543 C -1.2395194320648524 -0.47473566683058144 -1.2466158852384446 -0.48472737433714963 -1.2406775337980427 -0.500534230972078 C -1.230156056349696 -0.5283286725686476 -1.2206817985537022 -0.5568130471126496 -1.2070063419170922 -0.5830304991150874 C -1.184361756963859 -0.626286830872869 -1.1734953130417958 -0.6321882216196584 -1.114838692278823 -0.6223813175811524" fill="#e8a941" transform="matrix(1,0,0,1,0,0)" fill-rule="nonzero"></path></g><g clip-path="url(#bec2b5dae-7832-47d7-98e4-48be9fc32b04a6f6fa1a-d1c8-4cb8-b9bb-1de6c53827e9)"><path d=" M -1.763387983096647 0.6296375380785 C -1.7422587865815244 0.6272966941497107 -1.7381561495905415 0.6303274710259323 -1.7383163125961956 0.6521958814133042 C -1.7384887958330537 0.6702696605897969 -1.7402013079704308 0.6884050409223104 -1.7419261403390123 0.7064295391739861 C -1.746731030508632 0.7559075876898653 -1.7411376455419465 0.8029831911209344 -1.7122713438306159 0.8452539043823837 C -1.7009560057537079 0.8618611301998034 -1.6902949540881764 0.8789048392425787 -1.6803126640870423 0.896345903186007 C -1.7245546143411565 0.8499232720087577 -1.7697821830916025 0.8041289726229206 -1.7823980998446554 0.736823549554632 C -1.782566228241611 0.7382748217593187 -1.7827099845212633 0.7397288138449447 -1.7828293079368007 0.7411849114009015 C -1.7828909090928216 0.7428851033070751 -1.7828293079368007 0.7445976154444525 -1.7828293079368007 0.7485031287361692 C -1.804894842023439 0.6563724397915123 -1.7767677541843574 0.6260893114917039 -1.763387983096647 0.6296375380785" fill="#e8a941" transform="matrix(1,0,0,1,0,0)" fill-rule="nonzero"></path></g><g clip-path="url(#bec2b5dae-7832-47d7-98e4-48be9fc32b04a6f6fa1a-d1c8-4cb8-b9bb-1de6c53827e9)"><path d=" M -1.229909651725613 -0.6221349129570695 C -1.2397904771513437 -0.6085333777076845 -1.2485624817687007 -0.5994164066166111 -1.2539464228049155 -0.5885992436193647 C -1.2653549568999614 -0.5658807372789063 -1.2752973834817132 -0.5423983766037905 -1.2852398100634645 -0.5190268980095121 C -1.293149398496531 -0.5003987084288325 -1.30385567941294 -0.48417296393296283 -1.3241224597437717 -0.4784194159606233 C -1.3318718851711842 -0.4762017743438758 -1.3429108123301052 -0.4763619373495298 -1.349083248163386 -0.4805138552653294 C -1.353346048160023 -0.48338446913589705 -1.3551448019158294 -0.496493195137116 -1.3523234689700783 -0.5022590633406596 C -1.335160294607671 -0.5374187790239827 -1.3169510923789884 -0.5720581707184831 -1.29772020427328 -0.6061309326228591 C -1.2942212586112922 -0.6123033684561553 -1.285128927982627 -0.6175517869491245 -1.2777737499537478 -0.6188823719191731 C -1.2633344389824803 -0.6215065811656577 -1.2483653580694343 -0.6210753730735123 -1.229909651725613 -0.6221349129570695" fill="#e8a941" transform="matrix(1,0,0,1,0,0)" fill-rule="nonzero"></path></g><g clip-path="url(#bec2b5dae-7832-47d7-98e4-48be9fc32b04a6f6fa1a-d1c8-4cb8-b9bb-1de6c53827e9)"><path d=" M -0.6205510163681998 0.6787706201206625 C -0.6250355805265115 0.6878629507493275 -0.6272901828368715 0.7002078224158887 -0.6345591192473219 0.7052344767471832 C -0.6441196186617448 0.7118381206726094 -0.6548751805029704 0.7040517345515847 -0.6633391793402235 0.6967088767539094 C -0.6737251342453248 0.6877027877436734 -0.6843944544681213 0.678906142663908 -0.6948050498356306 0.6699246941160806 C -0.7038111388458665 0.662162948457464 -0.7070883203461713 0.6520603588700586 -0.7046242741053408 0.6407257461622375 C -0.7021725480957142 0.6294034536856208 -0.699166411681901 0.6180688409777999 -0.6953224995462051 0.6071407958997161 C -0.6899878394348067 0.5920361924434245 -0.6816963238344118 0.5894735843529606 -0.6679223053481684 0.599551533477958 C -0.6418773365825889 0.6186971727692119 -0.6225961747480893 0.6422041739067359 -0.6242347654982414 0.6773291530697765 C -0.6230027423778262 0.6777850016243301 -0.621783039488615 0.6782778108724963 -0.6205510163681998 0.6787706201206625" fill="#e8a941" transform="matrix(1,0,0,1,0,0)" fill-rule="nonzero"></path></g><g clip-path="url(#bec2b5dae-7832-47d7-98e4-48be9fc32b04a6f6fa1a-d1c8-4cb8-b9bb-1de6c53827e9)"><path d=" M -0.5984115608943366 0.5619255473804745 C -0.5985717238999904 0.5645127959333465 -0.5984854822815613 0.567605173965589 -0.5990152522233398 0.5705497092233816 C -0.6025634788101362 0.5910136132534798 -0.6176311215728154 0.5978636618029891 -0.6331792533524567 0.5843730086344414 C -0.64840705912079 0.5711534005523851 -0.6616513076652544 0.555531347385519 -0.674981797828148 0.5402665809235734 C -0.6779879342419615 0.5368785173424313 -0.6791337157439477 0.5304719971162715 -0.6786162660333734 0.5256917474090601 C -0.6771131978264666 0.5119793300788378 -0.6743041851119198 0.4984393959854736 -0.6720865434951722 0.4848132202736801 C -0.6701769076585282 0.4731459613233471 -0.6623658810750954 0.47112544340586604 -0.6542838094051708 0.47653402490448915 C -0.6238281978685043 0.49682544569772924 -0.5997544660955894 0.5218108745797518 -0.5984115608943366 0.5619255473804745" fill="#e8a941" transform="matrix(1,0,0,1,0,0)" fill-rule="nonzero"></path></g><g clip-path="url(#bec2b5dae-7832-47d7-98e4-48be9fc32b04a6f6fa1a-d1c8-4cb8-b9bb-1de6c53827e9)"><path d=" M -1.3497608608796146 -0.5958558597986107 C -1.374425963750329 -0.5680244575084288 -1.3774197799329382 -0.5307557581158656 -1.3943600978386488 -0.5000907026487285 C -1.400902140608054 -0.4882632806927415 -1.4121012307726293 -0.47813605064292763 -1.423251040012388 -0.4700786194354115 C -1.428326975268499 -0.46639487030536975 -1.4402775995365276 -0.4667767974726985 -1.4455260180294967 -0.4704605466027403 C -1.4496286550204798 -0.4733311604733079 -1.4512302850770196 -0.4855035489030112 -1.4486676769865556 -0.4911585350257175 C -1.4362488839327694 -0.5185217685301415 -1.4236822481045333 -0.546069805502628 -1.4079493128568297 -0.5716342852512457 C -1.395666042346289 -0.5915684193395654 -1.3726148897633186 -0.5942419095108666 -1.3497608608796146 -0.5958558597986107" fill="#e8a941" transform="matrix(1,0,0,1,0,0)" fill-rule="nonzero"></path></g><g clip-path="url(#bec2b5dae-7832-47d7-98e4-48be9fc32b04a6f6fa1a-d1c8-4cb8-b9bb-1de6c53827e9)"><path d=" M -0.7333796937358339 0.7691271957719217 C -0.7301887538539582 0.752913771507256 -0.7288212081902974 0.7407783437711652 -0.7252729816035013 0.7293451692137112 C -0.7210101816068644 0.7156573923458971 -0.7091334787260606 0.7117272385917721 -0.6975771018565651 0.7197230686432676 C -0.6698319411848122 0.73889334839693 -0.6543207700987834 0.7649752778561218 -0.6553926302135447 0.7994349645341383 C -0.6558484787680985 0.8145149275280217 -0.6629572521728948 0.8207982454421399 -0.6769899955144252 0.8157469506484369 C -0.6916757111097758 0.8104985321554679 -0.7064846290171676 0.8037224049931835 -0.7186570174468709 0.7942727876595981 C -0.7264434035678957 0.7882481946007673 -0.7294741804441174 0.7761127668646763 -0.7333796937358339 0.7691271957719217" fill="#e8a941" transform="matrix(1,0,0,1,0,0)" fill-rule="nonzero"></path></g><g clip-path="url(#bec2b5dae-7832-47d7-98e4-48be9fc32b04a6f6fa1a-d1c8-4cb8-b9bb-1de6c53827e9)"><path d=" M -1.4613944758204458 -0.5375811662029666 C -1.4713122619397891 -0.5063986610252551 -1.48329984690143 -0.47946663561297637 -1.504379762491736 -0.45748734314476724 C -1.5075707023736116 -0.4541608807196459 -1.5116363786709823 -0.45104386222499515 -1.5158991786676193 -0.44949151309327184 C -1.523685564788644 -0.4467071408411333 -1.5285397358830803 -0.4496023951741092 -1.5283795728774263 -0.4586084841843452 C -1.5277512410860146 -0.4847396945683539 -1.4974927532486144 -0.5270720089858241 -1.473542223787741 -0.5350924794997277 C -1.4704621659867025 -0.5361396991520807 -1.467123383330377 -0.5364353847009804 -1.4613944758204458 -0.5375811662029666" fill="#e8a941" transform="matrix(1,0,0,1,0,0)" fill-rule="nonzero"></path></g><g clip-path="url(#bec2b5dae-7832-47d7-98e4-48be9fc32b04a6f6fa1a-d1c8-4cb8-b9bb-1de6c53827e9)"><path d=" M -1.5279730052476892 -0.30820310164404374 C -1.5279730052476892 -0.30820310164404374 -1.5683587231349032 -0.33561561607328444 -1.5265315381968034 -0.3572745825301856 C -1.5265315381968034 -0.3572745825301856 -1.4659283209035743 -0.38179184262645033 -1.3476048204188875 -0.3803503755755644 L -1.3634732782098369 -0.31686422418056337 C -1.3634732782098369 -0.31686422418056337 -1.4875872873604754 -0.31975947851353936 -1.5279730052476892 -0.30820310164404374" fill="#e8a941" transform="matrix(1,0,0,1,0,0)" fill-rule="nonzero"></path></g><g clip-path="url(#bec2b5dae-7832-47d7-98e4-48be9fc32b04a6f6fa1a-d1c8-4cb8-b9bb-1de6c53827e9)"><path d=" M -1.5250777509147133 -0.18987960115935726 C -1.5250777509147133 -0.18987960115935726 -1.5972250248462339 -0.19711157687619513 -1.5611513878804737 -0.23316057337954715 C -1.5611513878804737 -0.23316057337954715 -1.5294144722985752 -0.25481953983644834 -1.3764957625926266 -0.2562610068873343 L -1.3923395799211675 -0.19421632254321913 Z" fill="#e8a941" transform="matrix(1,0,0,1,0,0)" fill-rule="nonzero"></path></g><g clip-path="url(#bec2b5dae-7832-47d7-98e4-48be9fc32b04a6f6fa1a-d1c8-4cb8-b9bb-1de6c53827e9)"><path d=" M -1.577044486133831 -0.06434876542024104 C -1.577044486133831 -0.06434876542024104 -1.6231960722245886 -0.10042240238600142 -1.5741492318008552 -0.12062758156081244 C -1.5741492318008552 -0.12062758156081244 -1.4615792792885083 -0.13504225206967158 -1.4053251036103451 -0.13218395843030806 L -1.4182983070683182 -0.06868548680410291 C -1.4182983070683182 -0.06868548680410291 -1.5207287092996473 -0.07300988795676067 -1.577044486133831 -0.06434876542024104" fill="#e8a941" transform="matrix(1,0,0,1,0,0)" fill-rule="nonzero"></path></g><g clip-path="url(#bec2b5dae-7832-47d7-98e4-48be9fc32b04a6f6fa1a-d1c8-4cb8-b9bb-1de6c53827e9)"><path d=" M -1.5380755948350948 0.05684534893501325 C -1.5380755948350948 0.05684534893501325 -1.6434012513993999 0.049638013680583626 -1.617430204021045 0.006357041460393731 C -1.617430204021045 0.006357041460393731 -1.5164166283781937 -0.021067793200051144 -1.4514890099323068 -0.008094589742077885 C -1.4514890099323068 -0.008094589742077885 -1.4832382457454094 0.04674275934760763 -1.5380755948350948 0.05684534893501325" fill="#e8a941" transform="matrix(1,0,0,1,0,0)" fill-rule="nonzero"></path></g><g clip-path="url(#bec2b5dae-7832-47d7-98e4-48be9fc32b04a6f6fa1a-d1c8-4cb8-b9bb-1de6c53827e9)"><path d=" M -1.4991067035363586 0.13478313153248578 C -1.4991067035363586 0.13478313153248578 -1.5135213740452176 0.0987094945667254 -1.5870854745652159 0.11889003327912828 L -1.6491917600653518 0.13188787719950978 C -1.6491917600653518 0.13188787719950978 -1.6650848583187092 0.17229823554913204 -1.592888303462372 0.17951789103476568 L -1.503418784457812 0.17806410375267567 C -1.503418784457812 0.17806410375267567 -1.4832628862078177 0.17806410375267567 -1.4875626468980672 0.16219564596172642 C -1.491899368281929 0.14630254770836892 -1.4991067035363586 0.13478313153248578 -1.4991067035363586 0.13478313153248578" fill="#e8a941" transform="matrix(1,0,0,1,0,0)" fill-rule="nonzero"></path></g><g clip-path="url(#bec2b5dae-7832-47d7-98e4-48be9fc32b04a6f6fa1a-d1c8-4cb8-b9bb-1de6c53827e9)"><path d=" M -1.598678812128324 0.3035826192605876 C -1.598678812128324 0.3035826192605876 -1.6765919542633883 0.29779211059463573 -1.6737213403928206 0.26317226091096535 C -1.6708260860598447 0.22854009099609096 -1.5741492318008552 0.23433059966204295 -1.5423753555253443 0.23433059966204295 L -1.4861704607719979 0.23433059966204295 L -1.503480385613833 0.3035826192605876 Z" fill="#e8a941" transform="matrix(1,0,0,1,0,0)" fill-rule="nonzero"></path></g><g clip-path="url(#bec2b5dae-7832-47d7-98e4-48be9fc32b04a6f6fa1a-d1c8-4cb8-b9bb-1de6c53827e9)"><path d=" M -1.6304034074790184 0.4219184399764784 C -1.6304034074790184 0.4219184399764784 -1.7343122374548456 0.404583874672235 -1.69249737274795 0.365639623835907 C -1.69249737274795 0.365639623835907 -1.665060217856301 0.35408324696641136 -1.5149751613273077 0.359849115169955 L -1.530843619118257 0.426230520897932 Z" fill="#e8a941" transform="matrix(1,0,0,1,0,0)" fill-rule="nonzero"></path></g><g clip-path="url(#bec2b5dae-7832-47d7-98e4-48be9fc32b04a6f6fa1a-d1c8-4cb8-b9bb-1de6c53827e9)"><path d=" M -1.6852407565687038 0.5387635127166666 C -1.6852407565687038 0.5387635127166666 -1.747285440912819 0.5084803844168584 -1.725651114918326 0.492611926625909 C -1.725651114918326 0.492611926625909 -1.6997170282335838 0.47671882837255164 -1.5452952503207287 0.4854045913714795 L -1.559734561291996 0.5532151439191382 Z" fill="#e8a941" transform="matrix(1,0,0,1,0,0)" fill-rule="nonzero"></path></g><g clip-path="url(#bec2b5dae-7832-47d7-98e4-48be9fc32b04a6f6fa1a-d1c8-4cb8-b9bb-1de6c53827e9)"><path d=" M -0.8980272635481363 -0.6054409996754417 C -0.8980272635481363 -0.6054409996754417 -0.9564621201494345 -0.6292560065930697 -0.993274970987444 -0.47340508186053276 C -0.993274970987444 -0.47340508186053276 -0.9316984554290868 -0.42136442525419 -0.9088937074701993 -0.45609515701869763 C -0.8590830127118083 -0.5318522586930352 -0.8612636936349435 -0.594599196215787 -0.8222824821050029 -0.5924431557550602 C -0.783338231268675 -0.5902871152943334 -0.8958712230874095 -0.6054409996754417 -0.8958712230874095 -0.6054409996754417" fill="#e8a941" transform="matrix(1,0,0,1,0,0)" fill-rule="nonzero"></path></g><g clip-path="url(#bec2b5dae-7832-47d7-98e4-48be9fc32b04a6f6fa1a-d1c8-4cb8-b9bb-1de6c53827e9)"><path d=" M -1.0391924726853226 1.1478264625251802 L -0.8669309999888537 1.1478264625251802 L -0.8669309999888537 1.7679653001862274 Z" fill="#e8a941" transform="matrix(1,0,0,1,0,0)" fill-rule="nonzero"></path></g><g clip-path="url(#bec2b5dae-7832-47d7-98e4-48be9fc32b04a6f6fa1a-d1c8-4cb8-b9bb-1de6c53827e9)"><path d=" M -1.1077052784116181 1.1535676902663157 L -1.0560219085101958 1.3373116184450553 L -0.8952552115272018 1.377512532864207 L -0.9698911721619614 1.1478264625251802 Z" fill="#e8a941" transform="matrix(1,0,0,1,0,0)" fill-rule="nonzero"></path></g><g clip-path="url(#bec2b5dae-7832-47d7-98e4-48be9fc32b04a6f6fa1a-d1c8-4cb8-b9bb-1de6c53827e9)"><path d=" M -0.711511283348462 1.3889949883464772 C -0.6702877897393658 1.3889949883464772 -0.6368630024824984 1.3350077352098784 -0.6368630024824984 1.2684168855514308 C -0.6368630024824984 1.201813715661779 -0.6702877897393658 1.14782646252518 -0.711511283348462 1.14782646252518 C -0.7527347769575583 1.14782646252518 -0.7861595642144259 1.201813715661779 -0.7861595642144259 1.2684168855514308 C -0.7861595642144259 1.3350077352098784 -0.7527347769575583 1.3889949883464772 -0.711511283348462 1.3889949883464772" fill="#e8a941" transform="matrix(1,0,0,1,0,0)" fill-rule="nonzero"></path></g><g clip-path="url(#bec2b5dae-7832-47d7-98e4-48be9fc32b04a6f6fa1a-d1c8-4cb8-b9bb-1de6c53827e9)"><path d=" M -0.7451455145358001 1.0298602487454138 C -0.7451455145358001 1.0298602487454138 -0.6418526961201805 1.0334700764882307 -0.6042143897914924 0.9428547759816848 C -0.5665760834628049 0.8522394754751383 -0.4000065575826546 -0.1958056323685548 -0.4000065575826546 -0.1958056323685548 L -0.615339558568843 0.8980460950921796 C -0.615339558568843 0.8980460950921796 -0.6368753227137023 1.0143244371969768 -0.7451455145358001 1.0298602487454138" fill="#e8a941" transform="matrix(1,0,0,1,0,0)" fill-rule="nonzero"></path></g></g><g><path d=" M 0.9075 0.3989999999999997 Q 0.864 0.3074999999999998 0.7815 0.25724999999999976 Q 0.6990000000000001 0.20699999999999974 0.5895 0.20699999999999974 Q 0.48 0.20699999999999974 0.39225 0.25724999999999976 Q 0.3045 0.3074999999999998 0.25425000000000003 0.4012499999999998 Q 0.20400000000000001 0.4949999999999998 0.20400000000000001 0.6179999999999998 Q 0.20400000000000001 0.7409999999999997 0.25425000000000003 0.8339999999999997 Q 0.3045 0.9269999999999997 0.39225 0.9772499999999997 Q 0.48 1.0274999999999996 0.5895 1.0274999999999996 Q 0.7425 1.0274999999999996 0.8415 0.9359999999999997 Q 0.9405 0.8444999999999998 0.9570000000000001 0.6884999999999997 L 0.54 0.6884999999999997 L 0.54 0.5774999999999997 L 1.1025 0.5774999999999997 L 1.1025 0.6824999999999997 Q 1.0905 0.8114999999999997 1.0215 0.9187499999999997 Q 0.9525 1.0259999999999998 0.84 1.0882499999999997 Q 0.7275 1.1504999999999996 0.5895 1.1504999999999996 Q 0.444 1.1504999999999996 0.324 1.0822499999999997 Q 0.20400000000000001 1.0139999999999998 0.13425 0.8924999999999997 Q 0.0645 0.7709999999999997 0.0645 0.6179999999999998 Q 0.0645 0.46499999999999975 0.13425 0.34274999999999967 Q 0.20400000000000001 0.2204999999999997 0.324 0.15224999999999966 Q 0.444 0.08399999999999963 0.5895 0.08399999999999963 Q 0.756 0.08399999999999963 0.88425 0.16649999999999976 Q 1.0125 0.24899999999999967 1.071 0.3989999999999997 L 0.9075 0.3989999999999997 M 1.282522705078125 0.1589999999999997 Q 1.2555227050781248 0.13199999999999967 1.2555227050781248 0.09299999999999975 Q 1.2555227050781248 0.053999999999999604 1.282522705078125 0.02699999999999969 Q 1.3095227050781248 -2.220446049250313e-16 1.3485227050781248 -2.220446049250313e-16 Q 1.3860227050781249 -2.220446049250313e-16 1.4122727050781247 0.02699999999999969 Q 1.4385227050781249 0.053999999999999604 1.4385227050781249 0.09299999999999975 Q 1.4385227050781249 0.13199999999999967 1.4122727050781247 0.1589999999999997 Q 1.3860227050781249 0.18599999999999972 1.3485227050781248 0.18599999999999972 Q 1.3095227050781248 0.18599999999999972 1.282522705078125 0.1589999999999997 M 1.4145227050781248 0.3194999999999997 L 1.4145227050781248 1.1414999999999997 L 1.2780227050781248 1.1414999999999997 L 1.2780227050781248 0.3194999999999997 L 1.4145227050781248 0.3194999999999997 M 2.168230224609375 0.3524999999999997 Q 2.248480224609375 0.3989999999999997 2.287480224609375 0.4694999999999997 L 2.287480224609375 0.3194999999999997 L 2.425480224609375 0.3194999999999997 L 2.425480224609375 1.1594999999999998 Q 2.425480224609375 1.2719999999999998 2.377480224609375 1.3597499999999998 Q 2.329480224609375 1.4474999999999998 2.240230224609375 1.4969999999999997 Q 2.1509802246093748 1.5464999999999998 2.032480224609375 1.5464999999999998 Q 1.8704802246093748 1.5464999999999998 1.762480224609375 1.4699999999999998 Q 1.6544802246093748 1.3934999999999997 1.634980224609375 1.2614999999999998 L 1.769980224609375 1.2614999999999998 Q 1.792480224609375 1.3364999999999998 1.862980224609375 1.3822499999999998 Q 1.933480224609375 1.4279999999999997 2.032480224609375 1.4279999999999997 Q 2.144980224609375 1.4279999999999997 2.216230224609375 1.3574999999999997 Q 2.287480224609375 1.2869999999999997 2.287480224609375 1.1594999999999998 L 2.287480224609375 0.9869999999999998 Q 2.246980224609375 1.0589999999999997 2.167480224609375 1.1069999999999998 Q 2.087980224609375 1.1549999999999998 1.981480224609375 1.1549999999999998 Q 1.8719802246093749 1.1549999999999998 1.782730224609375 1.1009999999999998 Q 1.693480224609375 1.0469999999999997 1.6424802246093748 0.9494999999999998 Q 1.5914802246093749 0.8519999999999998 1.5914802246093749 0.7274999999999997 Q 1.5914802246093749 0.6014999999999997 1.6424802246093748 0.5062499999999998 Q 1.693480224609375 0.4109999999999997 1.782730224609375 0.3584999999999997 Q 1.8719802246093749 0.3059999999999997 1.981480224609375 0.3059999999999997 Q 2.087980224609375 0.3059999999999997 2.168230224609375 0.3524999999999997 M 2.249980224609375 0.5669999999999997 Q 2.212480224609375 0.4979999999999998 2.148730224609375 0.4612499999999997 Q 2.084980224609375 0.42449999999999977 2.0084802246093747 0.42449999999999977 Q 1.931980224609375 0.42449999999999977 1.868980224609375 0.4604999999999997 Q 1.805980224609375 0.4964999999999997 1.768480224609375 0.5654999999999997 Q 1.7309802246093748 0.6344999999999997 1.7309802246093748 0.7274999999999997 Q 1.7309802246093748 0.8219999999999997 1.768480224609375 0.8917499999999997 Q 1.805980224609375 0.9614999999999998 1.868980224609375 0.9982499999999997 Q 1.931980224609375 1.0349999999999997 2.0084802246093747 1.0349999999999997 Q 2.084980224609375 1.0349999999999997 2.148730224609375 0.9982499999999997 Q 2.212480224609375 0.9614999999999998 2.249980224609375 0.8917499999999997 Q 2.287480224609375 0.8219999999999997 2.287480224609375 0.7289999999999996 Q 2.287480224609375 0.6359999999999997 2.249980224609375 0.5669999999999997 M 3.243018310546875 0.09599999999999964 L 3.243018310546875 0.20699999999999974 L 2.788518310546875 0.20699999999999974 L 2.788518310546875 0.5594999999999998 L 3.157518310546875 0.5594999999999998 L 3.157518310546875 0.6704999999999997 L 2.788518310546875 0.6704999999999997 L 2.788518310546875 1.1414999999999997 L 2.652018310546875 1.1414999999999997 L 2.652018310546875 0.09599999999999964 L 3.243018310546875 0.09599999999999964 M 3.4080607910156253 0.1589999999999997 Q 3.381060791015625 0.13199999999999967 3.381060791015625 0.09299999999999975 Q 3.381060791015625 0.053999999999999604 3.4080607910156253 0.02699999999999969 Q 3.435060791015625 -2.220446049250313e-16 3.474060791015625 -2.220446049250313e-16 Q 3.5115607910156252 -2.220446049250313e-16 3.5378107910156253 0.02699999999999969 Q 3.564060791015625 0.053999999999999604 3.564060791015625 0.09299999999999975 Q 3.564060791015625 0.13199999999999967 3.5378107910156253 0.1589999999999997 Q 3.5115607910156252 0.18599999999999972 3.474060791015625 0.18599999999999972 Q 3.435060791015625 0.18599999999999972 3.4080607910156253 0.1589999999999997 M 3.540060791015625 0.3194999999999997 L 3.540060791015625 1.1414999999999997 L 3.403560791015625 1.1414999999999997 L 3.403560791015625 0.3194999999999997 L 3.540060791015625 0.3194999999999997 M 4.411518310546875 0.39524999999999977 Q 4.504518310546875 0.48599999999999977 4.504518310546875 0.6569999999999998 L 4.504518310546875 1.1414999999999997 L 4.369518310546875 1.1414999999999997 L 4.369518310546875 0.6764999999999997 Q 4.369518310546875 0.5534999999999998 4.308018310546875 0.48824999999999974 Q 4.246518310546875 0.4229999999999997 4.140018310546875 0.4229999999999997 Q 4.032018310546875 0.4229999999999997 3.968268310546875 0.4904999999999997 Q 3.904518310546875 0.5579999999999997 3.904518310546875 0.6869999999999997 L 3.904518310546875 1.1414999999999997 L 3.768018310546875 1.1414999999999997 L 3.768018310546875 0.3194999999999997 L 3.904518310546875 0.3194999999999997 L 3.904518310546875 0.4364999999999998 Q 3.945018310546875 0.3734999999999997 4.014768310546875 0.33899999999999975 Q 4.084518310546875 0.30449999999999977 4.168518310546875 0.30449999999999977 Q 4.318518310546875 0.30449999999999977 4.411518310546875 0.39524999999999977 M 4.723540283203125 0.5062499999999998 Q 4.774540283203125 0.4109999999999997 4.863790283203125 0.3584999999999997 Q 4.953040283203125 0.3059999999999997 5.064040283203125 0.3059999999999997 Q 5.160040283203125 0.3059999999999997 5.242540283203125 0.35024999999999973 Q 5.3250402832031245 0.39449999999999974 5.368540283203125 0.4664999999999997 L 5.368540283203125 0.03149999999999964 L 5.506540283203125 0.03149999999999964 L 5.506540283203125 1.1414999999999997 L 5.368540283203125 1.1414999999999997 L 5.368540283203125 0.9869999999999998 Q 5.328040283203125 1.0604999999999998 5.248540283203125 1.1077499999999998 Q 5.169040283203125 1.1549999999999998 5.062540283203125 1.1549999999999998 Q 4.953040283203125 1.1549999999999998 4.863790283203125 1.1009999999999998 Q 4.774540283203125 1.0469999999999997 4.723540283203125 0.9494999999999998 Q 4.672540283203125 0.8519999999999998 4.672540283203125 0.7274999999999997 Q 4.672540283203125 0.6014999999999997 4.723540283203125 0.5062499999999998 M 5.331040283203125 0.5669999999999997 Q 5.293540283203125 0.4979999999999998 5.2297902832031244 0.4612499999999997 Q 5.166040283203125 0.42449999999999977 5.0895402832031245 0.42449999999999977 Q 5.013040283203125 0.42449999999999977 4.9500402832031245 0.4604999999999997 Q 4.887040283203125 0.4964999999999997 4.849540283203125 0.5654999999999997 Q 4.812040283203125 0.6344999999999997 4.812040283203125 0.7274999999999997 Q 4.812040283203125 0.8219999999999997 4.849540283203125 0.8917499999999997 Q 4.887040283203125 0.9614999999999998 4.9500402832031245 0.9982499999999997 Q 5.013040283203125 1.0349999999999997 5.0895402832031245 1.0349999999999997 Q 5.166040283203125 1.0349999999999997 5.2297902832031244 0.9982499999999997 Q 5.293540283203125 0.9614999999999998 5.331040283203125 0.8917499999999997 Q 5.368540283203125 0.8219999999999997 5.368540283203125 0.7289999999999996 Q 5.368540283203125 0.6359999999999997 5.331040283203125 0.5669999999999997 M 6.4785783691406245 0.7814999999999998 L 5.821578369140624 0.7814999999999998 Q 5.829078369140625 0.9029999999999997 5.904828369140625 0.9712499999999997 Q 5.980578369140625 1.0394999999999996 6.088578369140625 1.0394999999999996 Q 6.177078369140625 1.0394999999999996 6.236328369140625 0.9982499999999997 Q 6.295578369140625 0.9569999999999997 6.319578369140625 0.8879999999999997 L 6.466578369140625 0.8879999999999997 Q 6.4335783691406245 1.0064999999999997 6.334578369140624 1.0807499999999997 Q 6.235578369140625 1.1549999999999998 6.088578369140625 1.1549999999999998 Q 5.971578369140625 1.1549999999999998 5.879328369140625 1.1024999999999998 Q 5.787078369140625 1.0499999999999998 5.734578369140625 0.9532499999999997 Q 5.6820783691406245 0.8564999999999997 5.6820783691406245 0.7289999999999996 Q 5.6820783691406245 0.6014999999999997 5.733078369140625 0.5054999999999997 Q 5.784078369140625 0.40949999999999975 5.876328369140625 0.3577499999999997 Q 5.968578369140625 0.3059999999999997 6.088578369140625 0.3059999999999997 Q 6.205578369140625 0.3059999999999997 6.295578369140625 0.35699999999999976 Q 6.3855783691406245 0.4079999999999997 6.434328369140625 0.49724999999999975 Q 6.483078369140625 0.5864999999999997 6.483078369140625 0.6989999999999997 Q 6.483078369140625 0.7379999999999998 6.4785783691406245 0.7814999999999998 M 6.307578369140625 0.5362499999999997 Q 6.273078369140625 0.47999999999999976 6.213828369140625 0.45074999999999976 Q 6.154578369140625 0.42149999999999976 6.0825783691406246 0.42149999999999976 Q 5.979078369140625 0.42149999999999976 5.906328369140625 0.4874999999999997 Q 5.833578369140625 0.5534999999999998 5.8230783691406245 0.6704999999999997 L 6.342078369140625 0.6704999999999997 Q 6.342078369140625 0.5924999999999997 6.307578369140625 0.5362499999999997 M 6.897821044921875 0.3434999999999997 Q 6.9645710449218745 0.30449999999999977 7.060571044921875 0.30449999999999977 L 7.060571044921875 0.4454999999999997 L 7.024571044921874 0.4454999999999997 Q 6.795071044921874 0.4454999999999997 6.795071044921874 0.6944999999999997 L 6.795071044921874 1.1414999999999997 L 6.6585710449218745 1.1414999999999997 L 6.6585710449218745 0.3194999999999997 L 6.795071044921874 0.3194999999999997 L 6.795071044921874 0.45299999999999974 Q 6.831071044921875 0.38249999999999973 6.897821044921875 0.3434999999999997" fill="#ffffff" fill-rule="nonzero"></path></g><g></g></g><defs><clipPath id="SvgjsClipPath3635"><path d=" M -1.7910099414563585 -0.6264653001862281 h 1.3910099414563586 v 2.394430600372456 h -1.3910099414563586 Z"></path></clipPath><clipPath id="bec2b5dae-7832-47d7-98e4-48be9fc32b04a6f6fa1a-d1c8-4cb8-b9bb-1de6c53827e9"><path d=" M -1.8033301726605115 -0.6387795453138804 L -0.38768632637850176 -0.6387795453138804 L -0.38768632637850176 1.7802855313903805 L -1.8033301726605115 1.7802855313903805 Z"></path></clipPath></defs></svg>